<svg xmlns="http://www.w3.org/2000/svg" xmlns:xlink="http://www.w3.org/1999/xlink" width="244" height="123" version="1.1" viewBox="0 0 244 123"><title>hammer_down</title><g id="Page-1" fill="none" fill-rule="evenodd" stroke="none" stroke-width="1"><g id="Tablet" fill-rule="nonzero" transform="translate(-263.000000, -719.000000)"><g id="hammer_down" transform="translate(384.500000, 781.000000) rotate(-90.000000) translate(-384.500000, -781.000000) translate(323.000000, 659.000000)"><path id="Path" fill="#FFDD09" d="M53.2499714,73.4045774 L53.2499714,222.399716 C53.2499714,231.71206 56.0498425,239.404577 59.25003,239.404577 L63.2499128,239.404577 C66.4501003,239.404577 69.2499714,231.71206 69.2499714,222.399716 L69.2499714,73.4045774 L53.2499714,73.4045774 Z"/><polygon id="Path" fill="#FCC309" points="45.156 122.063 78.156 122.063 78.156 73.063 45.156 73.063 45.156 122.063"/><path id="Path" fill="#FFF" d="M55.0606473,221.254003 L55.0606473,72.2588652 L47.0605804,72.2588652 L47.0605804,221.254003 C47.0605804,230.566348 52.2603661,238.258865 59.0604464,238.258865 L61.0605804,238.258865 C57.8609286,238.258865 55.0606473,230.565873 55.0606473,221.254003"/><path id="Path" fill="#FD9808" d="M69.613458,72.2539846 L69.613458,221.249123 C69.613458,230.561467 66.8136455,238.253985 63.613525,238.253985 L65.6136589,238.253985 C72.4137393,238.253985 77.613525,230.561467 77.613525,221.249123 L77.613525,72.2539846 L69.613458,72.2539846 Z"/><path id="Path" fill="#FFDD09" d="M98.4113745,73.2625879 L25.5934512,73.2625879 C21.143309,73.2625879 17.5024129,69.5983124 17.5024129,65.1195944 L17.5024129,24.4055814 C17.5024129,19.9268634 21.143309,16.2625879 25.5934512,16.2625879 L98.4113745,16.2625879 C102.861517,16.2625879 106.502413,19.9268634 106.502413,24.4055814 L106.502413,65.1195944 C106.502413,69.5983124 102.861517,73.2625879 98.4113745,73.2625879"/><path id="Path" fill="#FFF" d="M17.9381807,65.7070923 L17.9381807,24.9930792 C17.9381807,20.5143613 21.5381526,16.8500858 25.9382745,16.8500858 L13.9383682,16.8500858 C9.53824634,16.8500858 5.93827446,20.5143613 5.93827446,24.9930792 L5.93827446,65.7070923 C5.93827446,70.1858103 9.53824634,73.8500858 13.9383682,73.8500858 L25.9382745,73.8500858 C21.5381526,73.8500858 17.9381807,70.1858103 17.9381807,65.7070923"/><path id="Path" fill="#FD9808" d="M110.972765,16.0977083 L98.972859,16.0977083 C103.372981,16.0977083 106.972953,19.7619838 106.972953,24.2407017 L106.972953,64.9547148 C106.972953,69.4334328 103.372981,73.0977083 98.972859,73.0977083 L110.972765,73.0977083 C115.372887,73.0977083 118.972859,69.4334328 118.972859,64.9547148 L118.972859,24.2407017 C118.972859,19.7619838 115.372887,16.0977083 110.972765,16.0977083"/><polygon id="Path" fill="#FCC309" points="45.915 16.25 78.915 16.25 78.915 5.25 45.915 5.25 45.915 16.25"/><path id="Shape" fill="#000" d="M78.0556513,126.062963 L45.2553634,126.062963 C42.7953538,126.062963 41.1555076,124.434542 41.1555076,121.991671 L41.1555076,73.1342557 C41.1555076,70.6913849 42.7953538,69.0629634 45.2553634,69.0629634 L78.0556513,69.0629634 C80.5156609,69.0629634 82.1555076,70.6913849 82.1555076,73.1342557 L82.1555076,121.991671 C82.1559876,124.434542 80.5156609,126.062963 78.0556513,126.062963 Z M49.3556997,117.920379 L73.9557955,117.920379 L73.9557955,77.206025 L49.3556997,77.206025 L49.3556997,117.920379 L49.3556997,117.920379 Z"/><path id="Shape" fill="#000" d="M65.5686975,243.780841 L57.3685053,243.780841 C48.3486302,243.780841 40.9686014,236.464702 40.9686014,227.522914 L40.9686014,121.845203 C40.9686014,119.40649 42.6084476,117.780841 45.0684573,117.780841 L77.8687455,117.780841 C80.3287551,117.780841 81.9686014,119.40649 81.9686014,121.845203 L81.9686014,227.522914 C81.9690819,236.464702 74.589053,243.780841 65.5686975,243.780841 Z M49.1687936,125.909565 L49.1687936,227.522438 C49.1687936,231.99357 52.858808,235.651639 57.3689858,235.651639 L65.569178,235.651639 C70.0793557,235.651639 73.7693701,231.99357 73.7693701,227.522438 L73.7693701,125.909565 L49.1687936,125.909565 Z"/><path id="Shape" fill="#000" d="M110.771877,76.144971 L13.1718772,76.144971 C6.25838504,76.144971 0.971877226,70.8638668 0.971877226,63.9574412 L0.971877226,23.3325007 C0.971877226,16.4260752 6.25838504,11.144971 13.1718772,11.144971 L110.771877,11.144971 C117.685369,11.144971 122.971877,16.4260752 122.971877,23.3325007 L122.971877,63.9574412 C122.971877,70.8638668 117.685369,76.144971 110.771877,76.144971 Z M13.1718772,19.2701495 C11.138385,19.2701495 9.10536941,21.3015631 9.10536941,23.3325007 L9.10536941,63.9574412 C9.10536941,66.3949472 10.7318772,68.0197924 13.1718772,68.0197924 L110.771877,68.0197924 C113.211877,68.0197924 114.838385,66.3949472 114.838385,63.9574412 L114.838385,23.3325007 C114.838385,20.8949948 113.211877,19.2701495 110.771877,19.2701495 L13.1718772,19.2701495 Z"/><path id="Shape" fill="#000" d="M77.6977967,20.7809265 L44.8975088,20.7809265 C42.8473407,20.7809265 40.797653,19.1810577 40.797653,16.7810202 L40.797653,4.78083271 C40.797653,2.38079521 42.4374993,0.780926457 44.8975088,0.780926457 L77.6977967,0.780926457 C80.1578063,0.780926457 81.797653,2.38079521 81.797653,4.78083271 L81.797653,16.7810202 C81.798133,19.180589 80.1578063,20.7809265 77.6977967,20.7809265 Z M48.9978451,12.7806452 L73.5979409,12.7806452 L73.5979409,8.78073895 L48.9978451,8.78073895 L48.9978451,12.7806452 L48.9978451,12.7806452 Z"/><path id="Path" fill="#000" d="M58.6901991,223.719099 L46.6900116,223.719099 C44.2899741,223.719099 42.6901054,222.119193 42.6901054,219.719099 C42.6901054,217.319006 44.2899741,215.719099 46.6900116,215.719099 L58.6901991,215.719099 C61.0902366,215.719099 62.6901054,217.319006 62.6901054,219.719099 C62.6901054,222.119193 61.0902366,223.719099 58.6901991,223.719099 Z"/><path id="Path" fill="#000" d="M57.7790108,206.743537 L45.7788233,206.743537 C43.3787858,206.743537 41.778917,205.14363 41.778917,202.743537 C41.778917,200.343443 43.3787858,198.743537 45.7788233,198.743537 L57.7790108,198.743537 C60.1790483,198.743537 61.778917,200.343443 61.778917,202.743537 C61.778917,205.14363 60.1790483,206.743537 57.7790108,206.743537 Z"/></g></g></g></svg>