<?xml version="1.0" encoding="utf-8"?>
<svg version="1.1" id="Layer_1" 
	xmlns="http://www.w3.org/2000/svg" 
	xmlns:xlink="http://www.w3.org/1999/xlink" x="0px" y="0px" viewBox="0 0 436 436" style="enable-background:new 0 0 436 436;" xml:space="preserve">
	<style type="text/css">
	.st0{fill:#FFFFFF;}
	.st1{fill:#54596E;}
	.st2{fill:#D8D8D8;}
	.st3{fill:#FFD578;}
	</style>
	<path class="st0" d="M312,214.5l-11.5-54.4h-0.7c1.7-5.4,3.1-11.1,4-17.2c4.2-28.4-2.5-62.3-15.8-77.6
	c-16.7,8.1-30.6,36.9-34.8,65.3c-1.5,10.2-1.5,23.6-0.4,32.9h-70.3c1.1-9.4,1.1-22.7-0.4-32.9c-4.2-28.4-18.1-57.3-34.8-65.3
	c-13.2,15.3-20,49.2-15.8,77.6c1,6.7,2.5,13,4.5,18.8l-11.1,52.8c-2.9,22.6-2.4,45.7,1.4,68l15.3,88.8h153.5l15.3-88.8
	C314.5,260.1,315,237.1,312,214.5z"/>
	<path class="st1" d="M312,214.5l6.7-1.4l-11.5-54.4c-0.7-3.2-3.4-5.4-6.7-5.4h-0.7v6.8l6.5,2.1c1.8-5.7,3.3-11.8,4.3-18.3
	c0.9-6,1.3-12.2,1.3-18.5c0-12.5-1.7-25-4.8-36.2c-3.1-11.2-7.6-21.1-13.9-28.4c-2-2.3-5.3-3-8.1-1.7c-10.5,5.2-18.6,15.5-25.2,28
	c-6.5,12.5-11.2,27.5-13.4,42.4c-0.9,6-1.3,12.8-1.3,19.4c0,5.5,0.3,10.7,0.8,15.3l6.8-0.8v-6.8h-70.3v6.8l6.8,0.8
	c0.5-4.6,0.8-9.9,0.8-15.3c0-6.6-0.4-13.4-1.3-19.4c-2.2-15-6.9-29.9-13.4-42.4c-6.5-12.5-14.7-22.8-25.2-28
	c-2.8-1.3-6.1-0.7-8.1,1.7c-6.3,7.3-10.8,17.2-13.9,28.4c-3.1,11.2-4.8,23.7-4.8,36.2c0,6.2,0.4,12.4,1.3,18.5
	c1,7.1,2.7,13.8,4.8,20l6.5-2.2l-6.7-1.4l-11.1,52.8l-0.1,0.5c-1.3,10-1.9,20.1-1.9,30.2c0,13.4,1.1,26.7,3.4,39.8l15.3,88.8
	c0.6,3.3,3.4,5.7,6.7,5.7h153.5c3.3,0,6.2-2.4,6.7-5.7l15.3-88.8c2.3-13.1,3.4-26.5,3.4-39.8c0-10.1-0.6-20.2-1.9-30.2l-0.1-0.5
	L312,214.5l-6.8,0.9c1.2,9.4,1.8,18.9,1.8,28.4c0,12.6-1.1,25.2-3.2,37.5l-14.4,83.2h-142l-14.4-83.2c-2.1-12.3-3.2-24.9-3.2-37.5
	c0-9.5,0.6-19,1.8-28.4l-6.8-0.9l6.7,1.4l11.1-52.8c0.3-1.2,0.2-2.4-0.2-3.6c-1.8-5.5-3.3-11.4-4.2-17.7c-0.8-5.3-1.2-10.9-1.2-16.5
	c0-11.3,1.5-22.7,4.3-32.5c2.7-9.9,6.7-18.2,11.1-23.1l-5.2-4.5l-3,6.1c6.2,2.9,13.3,11,19,22c5.7,11,10,24.7,12,38.2
	c0.8,5.1,1.1,11.4,1.1,17.4c0,5-0.3,9.8-0.7,13.7c-0.2,1.9,0.4,3.9,1.7,5.3c1.3,1.5,3.1,2.3,5.1,2.3H253c1.9,0,3.8-0.8,5.1-2.3
	c1.3-1.5,1.9-3.4,1.7-5.3c-0.5-3.9-0.7-8.7-0.7-13.7c0-6,0.4-12.3,1.1-17.4c2-13.5,6.3-27.2,12-38.2c5.6-11,12.8-19.1,19-22l-3-6.1
	l-5.2,4.5c4.3,5,8.4,13.3,11.1,23.1c2.7,9.9,4.3,21.3,4.3,32.5c0,5.6-0.4,11.2-1.2,16.5c-0.8,5.7-2.2,11-3.8,16.2
	c-0.7,2.1-0.3,4.3,1,6.1c1.3,1.7,3.3,2.8,5.5,2.8h0.7v-6.8l-6.7,1.4l11.5,54.4L312,214.5l-6.8,0.9L312,214.5z"/>
	<path class="st0" d="M307.1,362.6c0-30.1-39.7-42.4-88.6-42.4c-48.9,0-88.6,12.3-88.6,42.4c0,30.1,39.6,66.6,88.6,66.6
	C267.5,429.2,307.1,392.7,307.1,362.6z"/>
	<path class="st1" d="M307.1,362.6h6.8c0-9-3.1-17.2-8.5-23.7c-8.2-9.7-20.7-15.8-35.6-19.8c-14.9-4-32.5-5.7-51.3-5.7
	c-25,0-47.9,3.1-65.3,10.5c-8.7,3.7-16.1,8.6-21.5,15.1c-5.4,6.5-8.6,14.6-8.5,23.7c0,9,2.9,18.1,7.9,26.5
	c7.5,12.7,19.5,24.3,34.6,32.9c15.1,8.5,33.3,14,52.9,14c26.2,0,49.7-9.7,66.9-23.5c8.6-6.9,15.6-14.9,20.6-23.4
	c5-8.5,7.9-17.5,7.9-26.5h-13.6c0,6-2,12.8-6,19.7c-6,10.3-16.4,20.4-29.6,27.9c-13.2,7.5-29.1,12.3-46.2,12.3
	c-22.7,0-43.5-8.5-58.4-20.5c-7.4-6-13.4-12.8-17.4-19.6c-4-6.8-6-13.7-6-19.7c0-6,1.8-10.6,5.4-15c5.3-6.4,15.2-11.9,28.6-15.4
	c13.3-3.5,29.9-5.3,47.8-5.2c23.9,0,45.3,3.1,59.9,9.4c7.3,3.1,12.9,7,16.4,11.3c3.5,4.3,5.3,8.9,5.4,15L307.1,362.6L307.1,362.6z" />
	<path class="st1" d="M191.3,388.3c0-18.8-15.2-34.1-34.1-34.1c-3.8,0-6.8,3-6.8,6.8c0,3.8,3.1,6.8,6.8,6.8
	c11.3,0,20.4,9.2,20.4,20.4c0,3.8,3,6.8,6.8,6.8C188.2,395.1,191.3,392.1,191.3,388.3z"/>
	<path class="st2" d="M245.8,129.4L218.5,6.8l-27.3,122.6"/>
	<path class="st1" d="M252.4,128L225.2,5.3c-0.7-3.1-3.5-5.3-6.7-5.3c-3.2,0-6,2.2-6.7,5.3L184.6,128c-0.8,3.7,1.5,7.3,5.2,8.1
	c3.7,0.8,7.3-1.5,8.1-5.2l20.6-92.7l20.6,92.7c0.8,3.7,4.5,6,8.1,5.2C250.9,135.3,253.3,131.6,252.4,128z"/>
	<path class="st1" d="M259.4,388.3c0-11.3,9.2-20.4,20.4-20.4c3.8,0,6.8-3.1,6.8-6.8c0-3.8-3.1-6.8-6.8-6.8
	c-18.8,0-34.1,15.2-34.1,34.1c0,3.8,3.1,6.8,6.8,6.8C256.4,395.1,259.4,392.1,259.4,388.3z"/>
	<path class="st3" d="M218.5,109c26.3,0,47.7,15.2,47.7,34.1v61.3l-61.3-20.4"/>
	<path class="st1" d="M218.5,115.8c11.9,0,22.5,3.5,29.8,8.7c3.7,2.6,6.5,5.6,8.3,8.8c1.9,3.1,2.8,6.4,2.8,9.8v51.9l-52.3-17.4
	c-3.6-1.2-7.4,0.7-8.6,4.3c-1.2,3.6,0.7,7.4,4.3,8.6l61.3,20.4c2.1,0.7,4.4,0.3,6.1-0.9s2.8-3.3,2.8-5.5v-61.3
	c0-6-1.7-11.7-4.7-16.7c-4.5-7.5-11.6-13.5-20.2-17.7c-8.6-4.1-18.8-6.5-29.6-6.5c-3.8,0-6.8,3-6.8,6.8
	C211.7,112.8,214.8,115.8,218.5,115.8z"/>
	<path class="st3" d="M218.5,147.6V109c-26.3,0-47.7,15.3-47.7,34.1v95.4l54.5-68.1"/>
	<g>
		<path class="st1" d="M225.4,147.6V109c0-1.8-0.7-3.5-2-4.8c-1.3-1.3-3-2-4.8-2c-14.5,0-27.7,4.1-37.7,11.2
		c-5,3.6-9.2,7.9-12.1,12.9c-3,5-4.7,10.7-4.7,16.7v95.4c0,2.9,1.8,5.5,4.6,6.4c2.7,1,5.8,0.1,7.6-2.2l54.5-68.1
		c2.4-2.9,1.9-7.2-1.1-9.6c-2.9-2.4-7.2-1.9-9.6,1.1l-42.4,53v-76c0-3.4,0.9-6.6,2.8-9.8c2.8-4.7,7.7-9.1,14.4-12.3
		c6.6-3.2,14.8-5.1,23.7-5.1V109h-6.8v38.6c0,3.8,3.1,6.8,6.8,6.8C222.3,154.5,225.4,151.4,225.4,147.6z"/>
		<path class="st1" d="M170.9,262.3c0,5.6-4.6,10.2-10.2,10.2c-5.6,0-10.2-4.6-10.2-10.2c0-5.6,4.6-10.2,10.2-10.2
		C166.3,252.1,170.9,256.6,170.9,262.3z"/>
		<path class="st1" d="M286.7,262.3c0,5.6-4.6,10.2-10.2,10.2c-5.6,0-10.2-4.6-10.2-10.2c0-5.6,4.6-10.2,10.2-10.2
		C282.1,252.1,286.7,256.6,286.7,262.3z"/>
	</g>
</svg>
